<?xml version="1.0" encoding="UTF-8" standalone="no"?>
<!-- Created with Inkscape (http://www.inkscape.org/) -->

<svg
   width="256"
   height="256"
   viewBox="0 0 67.73333 67.733335"
   version="1.1"
   id="svg1"
   inkscape:version="1.4.2 (ebf0e940, 2025-05-08)"
   sodipodi:docname="elc-icon.svg"
   xml:space="preserve"
   xmlns:inkscape="http://www.inkscape.org/namespaces/inkscape"
   xmlns:sodipodi="http://sodipodi.sourceforge.net/DTD/sodipodi-0.dtd"
   xmlns="http://www.w3.org/2000/svg"
   xmlns:svg="http://www.w3.org/2000/svg"><sodipodi:namedview
     id="namedview1"
     pagecolor="#ffffff"
     bordercolor="#000000"
     borderopacity="0.25"
     inkscape:showpageshadow="2"
     inkscape:pageopacity="0.0"
     inkscape:pagecheckerboard="0"
     inkscape:deskcolor="#d1d1d1"
     inkscape:document-units="px"
     inkscape:zoom="1.9766018"
     inkscape:cx="97.389369"
     inkscape:cy="120.66163"
     inkscape:window-width="1488"
     inkscape:window-height="950"
     inkscape:window-x="0"
     inkscape:window-y="39"
     inkscape:window-maximized="0"
     inkscape:current-layer="layer1"
     showguides="true" /><defs
     id="defs1" /><g
     inkscape:label="Layer 1"
     inkscape:groupmode="layer"
     id="layer1"><path
       id="path1"
       style="stroke-width:0.802253"
       class="st0"
       d="m 48.038848,6.3785134 c 0.526011,0.8917266 1.996856,1.685985 2.095794,2.9896845 -2.232005,0.178464 -9.117687,-2.4292916 -10.618554,-3.443666 -1.991092,-1.345697 -2.38831,-1.1393377 -1.186715,0.5785104 0.607389,0.8683467 3.273862,3.0667426 4.223536,3.7325487 1.451846,1.017876 2.226219,1.582574 1.581748,2.120324 -0.938629,0.778188 -3.729607,-0.505467 -4.482505,0.26624 -0.816075,0.836462 1.269495,1.944669 0.592735,4.420265 -0.661633,2.42026 -0.945046,3.409823 -2.713273,4.430518 -1.569367,0.905904 -2.812436,1.372481 -5.21506,2.304169 -0.754461,0.292564 -1.043467,0.333422 -1.211965,0.229116 -0.136446,-0.08824 -0.192519,-0.320817 -0.136426,-0.7059 l 0.248564,-1.70894 c 0.224681,-1.548351 0.418763,-2.352148 -0.01438,-3.859574 -0.38886,-1.3533 -0.370385,-1.899965 -0.04143,-2.750358 0.304851,-0.778185 1.500345,-1.299966 2.535246,-1.596802 3.000425,-0.850388 3.658142,-2.904857 1.885156,-2.335258 -1.436021,0.465306 -1.756697,1.364071 -4.227649,1.155485 -0.71401,-0.05616 -1.308202,-0.361025 -1.789555,-0.810286 -0.786205,-0.5696 -1.788491,-1.8048444 -2.125451,-0.633553 -0.08037,0.27277 0.313041,0.689151 0.49867,0.927478 0.436857,0.560878 1.009136,0.901981 1.073325,1.648075 -0.361036,0.0722 -0.738366,0.05518 -1.123446,-0.0088 -0.754125,-0.128348 -1.54802,-0.465072 -2.334224,-0.802018 l -3.90674,-2.141988 c -1.091053,-0.6016914 -0.915304,-0.24866 -0.345715,0.794266 0.609703,1.115133 1.645131,1.740822 2.631881,2.494939 l 3.184818,2.439127 c 0.593663,0.513443 1.074971,1.066622 1.331702,1.708423 0.882474,2.198179 0.585865,5.279158 0.05633,7.469311 -0.393117,1.620553 -0.826355,2.069855 -1.436088,1.773019 -1.444057,-0.705983 -4.043376,-1.155717 -7.019726,-1.99006 -1.259551,-0.352992 -3.15304,-1.532202 -4.12378,-2.190047 -1.075016,-0.72203 -0.489379,0.834058 0.232544,1.323434 l 1.676384,1.131713 c -0.336931,0.120348 -0.649672,0.09653 -0.906405,0.160714 -0.746087,0.200576 -5.278746,-2.888908 -5.615678,-2.92902 1.700761,5.856456 12.259003,4.044074 13.518555,6.081799 0.192542,0.312878 0.176542,0.609547 -0.152446,0.922425 l -3.875732,2.575036 c -0.425199,0.152425 -0.89012,0.320769 -1.387512,0.248564 -2.085872,-0.304857 -7.966634,-1.997479 -10.2851588,-2.206067 0.3289265,0.473332 0.7298308,0.922601 1.2753728,1.299662 0.521469,0.361014 2.126486,0.834269 1.95802,1.516187 -0.208612,0.850388 -3.3457808,0.545856 -4.0116405,0.449585 -1.7007857,-0.24066 -3.2973149,-0.778291 -4.8617183,-1.404049 0.3128871,0.673894 0.7785382,1.291394 1.580782,1.78077 1.2113998,0.738074 3.529871,1.195417 4.9418158,1.267623 4.356247,0.216615 4.091549,-2.045549 6.835242,-1.596285 0.73005,0.120348 1.484075,0.393336 2.021582,0.834574 l -5.80016,5.896281 -6.4182115,3.586344 c -0.3770779,0.898527 -0.1681037,1.676597 0.5059123,2.358513 l 0.00103,-5.17e-4 1.6608814,0.497644 c 0.561584,1.484169 1.7566698,1.845255 3.6018458,1.588533 0.465315,-0.06419 0.978628,-0.169016 1.532206,-0.305407 1.371833,-0.176502 5.423961,-0.924956 6.450857,-0.531852 4.193177,4.112957 4.129335,7.970857 9.329358,9.334721 7.463916,1.957639 7.116612,5.568369 14.431616,8.260186 9.584372,-7.194378 25.517376,-6.354746 16.217426,-25.906947 -18.361187,-2.98685 -20.554861,7.342107 -26.114287,5.64008 -3.544762,-2.267462 -8.16496,-5.761575 -8.727517,-7.276294 0.54407,-1.54958 1.765595,-2.212263 3.635482,-4.111724 -2.017095,-0.647126 -2.943224,-0.519437 -5.878441,0.314645 0.377226,-0.786774 2.938209,-3.16944 4.684777,-4.061537 1.254683,-0.640856 3.804555,-1.881282 7.124919,-3.351294 2.746042,-1.215744 5.04028,-1.524146 7.07992,-3.263871 1.919718,-1.637438 2.449508,-3.925374 3.125914,-5.527851 1.490978,-2.92784 4.672273,-3.497887 8.082295,-5.080091 3.041544,-1.411236 6.645423,-3.1972631 8.38522,-5.243109 C 66.150555,2.0173413 63.6143,1.775299 60.926549,4.4863956 58.929009,6.5012869 57.553761,7.033934 55.002884,7.6050397 52.682171,8.124615 49.482696,5.5094899 48.27494,4.7030433 47.125877,3.9357867 47.417905,5.3258538 48.038848,6.3785134 Z"
       sodipodi:nodetypes="scssscsssscccsccccccscccccccccccccccccccccccccccccccccccccsccccccssssssssss" /></g><style
     type="text/css"
     id="style1">.st0{fill-rule:evenodd;clip-rule:evenodd;}</style></svg>
