<?xml version="1.0" encoding="UTF-8" standalone="no"?>
<!-- Created with Inkscape (http://www.inkscape.org/) -->

<svg
   width="256"
   height="256"
   viewBox="0 0 67.73333 67.733335"
   version="1.1"
   id="svg1"
   inkscape:version="1.4.2 (ebf0e940, 2025-05-08)"
   sodipodi:docname="elc-icon.svg"
   xml:space="preserve"
   xmlns:inkscape="http://www.inkscape.org/namespaces/inkscape"
   xmlns:sodipodi="http://sodipodi.sourceforge.net/DTD/sodipodi-0.dtd"
   xmlns="http://www.w3.org/2000/svg"
   xmlns:svg="http://www.w3.org/2000/svg"><sodipodi:namedview
     id="namedview1"
     pagecolor="#ffffff"
     bordercolor="#000000"
     borderopacity="0.25"
     inkscape:showpageshadow="2"
     inkscape:pageopacity="0.0"
     inkscape:pagecheckerboard="0"
     inkscape:deskcolor="#d1d1d1"
     inkscape:document-units="px"
     inkscape:zoom="1.7874286"
     inkscape:cx="66.296355"
     inkscape:cy="99.304667"
     inkscape:window-width="1488"
     inkscape:window-height="950"
     inkscape:window-x="0"
     inkscape:window-y="39"
     inkscape:window-maximized="0"
     inkscape:current-layer="svg1"
     showguides="true" /><defs
     id="defs1" /><path
     id="path1"
     style="stroke-width:0.802253"
     class="st0"
     d="m 43.563077,4.064087 c 0.963336,1.6489871 3.962507,3.6023955 4.061445,4.906095 -3.609091,0.2440401 -8.330781,-2.5604426 -9.831648,-3.574817 -1.991092,-1.345697 -2.781763,-1.1393377 -1.580168,0.5785104 0.607389,0.8683467 3.273862,3.0667432 4.223536,3.7325489 1.451846,1.0178747 2.180818,1.4917707 1.536347,2.0295207 -0.938629,0.778188 -3.684206,-0.414666 -4.437104,0.357041 -0.816075,0.836462 2.156555,1.92134 1.500752,4.374864 -0.395532,1.479786 -1.520396,2.354628 -3.188473,3.092973 -1.171938,0.518738 -2.522194,0.750519 -4.589544,1.570449 -0.7522,0.298329 -1.043467,0.333422 -1.211965,0.229116 -0.136446,-0.08824 -0.192519,-0.320817 -0.136426,-0.7059 l 0.248564,-1.70894 c 0.224681,-1.548351 0.418763,-2.352148 -0.01438,-3.859574 -0.38886,-1.3533 -0.370385,-1.899965 -0.04143,-2.750358 0.304851,-0.778185 1.500345,-1.299966 2.535246,-1.596802 C 35.638254,9.8884263 36.295971,7.8339585 34.522985,8.4035572 33.086964,8.8688629 32.766288,9.7676273 30.295336,9.5590413 29.581326,9.5028813 28.987134,9.1980166 28.505781,8.7487559 27.719576,8.1791562 26.71729,6.9439118 26.38033,8.1152032 c -0.08037,0.27277 0.313041,0.6891507 0.49867,0.9274774 0.436857,0.5608777 1.009136,0.9019807 1.073325,1.6480744 -0.361036,0.0722 -0.738366,0.05518 -1.123446,-0.0088 -0.754125,-0.128348 -1.54802,-0.465072 -2.334224,-0.8020177 l -3.90674,-2.1419868 c -1.091053,-0.6016917 -0.915304,-0.24866 -0.345715,0.7942654 0.609703,1.1151324 1.645131,1.7408211 2.631881,2.4949381 l 3.184818,2.439127 c 0.593663,0.513443 1.074971,1.066622 1.331702,1.708423 0.882474,2.198179 0.585865,5.279158 0.05633,7.469311 -0.393117,1.620553 -0.826355,2.069855 -1.436088,1.773019 -1.444057,-0.705983 -4.043376,-1.155717 -7.019726,-1.99006 -1.259551,-0.352992 -3.15304,-1.532202 -4.12378,-2.190047 -1.075016,-0.72203 -0.489379,0.834058 0.232544,1.323434 l 1.676384,1.131713 c -0.336931,0.120348 -0.649672,0.09653 -0.906405,0.160714 -0.746087,0.200576 -5.278746,-2.888908 -5.615678,-2.92902 1.700761,5.856456 12.259003,4.044074 13.518555,6.081799 0.192542,0.312878 0.176542,0.609547 -0.152446,0.922425 l -3.875732,2.575036 c -0.425199,0.152425 -0.89012,0.320769 -1.387512,0.248564 -2.085872,-0.304857 -7.966634,-1.997479 -10.2851582,-2.206067 0.3289265,0.473332 0.7298308,0.922601 1.2753728,1.299662 0.5214687,0.361014 2.1264854,0.834269 1.9580194,1.516187 -0.208612,0.850388 -3.3457802,0.545856 -4.0116399,0.449585 -1.7007857,-0.24066 -3.2973149,-0.778291 -4.8617183,-1.404049 0.3128871,0.673894 0.7785382,1.291394 1.580782,1.78077 1.2113998,0.738074 3.529871,1.195417 4.9418158,1.267623 4.3562464,0.216615 4.0915484,-2.045549 6.8352414,-1.596285 0.73005,0.120348 1.484075,0.393336 2.021582,0.834574 l -5.80016,5.896281 -6.4182109,3.586344 c -0.3770779,0.898527 -0.1681037,1.676597 0.5059123,2.358513 l 0.00103,-5.17e-4 1.6608814,0.497644 c 0.561584,1.484169 1.7566695,1.845255 3.6018452,1.588533 0.465315,-0.06419 0.978628,-0.169016 1.532206,-0.305407 1.371833,-0.176502 5.423961,-0.924956 6.450857,-0.531852 4.193177,4.112957 4.129335,7.970857 9.329358,9.334721 7.463916,1.957639 3.920396,7.215874 11.892263,11.822056 1.255035,-2.132555 4.356373,-3.283317 6.92825,-4.120158 C 52.98111,60.03486 58.686701,56.985607 64.40903,42.597426 57.587147,39.89636 53.526677,38.247601 48.126239,38.030029 c -6.989495,-0.281591 -11.285026,5.192899 -14.916421,4.081142 -3.544762,-2.267462 -8.16496,-5.761575 -8.727517,-7.276294 0.54407,-1.54958 1.765595,-2.212263 3.635482,-4.111724 -2.017095,-0.647126 -2.943224,-0.519437 -5.878441,0.314645 0.377226,-0.786774 2.938209,-3.16944 4.684777,-4.061537 1.254683,-0.640856 3.811508,-1.865677 7.124919,-3.351294 1.963735,-0.88047 3.707983,-1.621175 5.523451,-2.840338 1.760183,-1.182038 2.68908,-2.208019 3.087868,-3.901071 0.605301,-2.5698 2.065454,-5.786169 5.721129,-4.910004 3.067523,0.7352 6.241835,3.294848 8.913936,6.970011 3.724455,5.122554 5.302784,5.277078 2.902712,-0.919921 C 58.969449,14.851173 59.022133,13.028641 55.0383,10.827188 52.9568,9.6769593 46.524494,4.6424735 44.697661,3.217655 42.780772,1.722598 42.250731,1.8176831 43.563077,4.064087 Z"
     sodipodi:nodetypes="scssscsssscccsccccccscccccccccccccccccccccccccccccccccccccscscsccccssssssssss" /><style
     type="text/css"
     id="style1">.st0{fill-rule:evenodd;clip-rule:evenodd;}</style></svg>
